<?xml version="1.0" encoding="UTF-8"?>
<svg id="Camada_1" xmlns="http://www.w3.org/2000/svg" version="1.1" viewBox="0 0 1000 350.45">
  <!-- Generator: Adobe Illustrator 29.7.1, SVG Export Plug-In . SVG Version: 2.1.1 Build 8)  -->
  <defs>
    <style>
      .st0 {
        fill: #a58062;
      }

      .st1 {
        fill: #40372d;
      }
    </style>
  </defs>
  <g>
    <path class="st0" d="M347.33,84.15c-6.03-16.38-20.79-27.01-37.11-31.76-32.39-9.42-69.06,2.87-91.49,27.49-2.9,3.19-5.41,6.67-7.73,10.3-1.52,2.38-1.13,6.36-.9,9.04.05.58,1.02,6.53,2.09,5.07,12.02-16.37,28.67-28.68,48.09-34.78,19.25-6.05,41.11-6.09,59.69,2.31,9.37,4.23,17.95,11.01,23.12,20.02,4.81,8.39,5.75,16,2.26,24.89-7.27,18.48-29.07,30.74-48.6,26.27,6.41-6.27,10.28-14.7,9.1-24.63-.87-7.33-6.21-12.45-13.65-12.72-2.25-.08-4.36.31-6.26,1.1-5.37,2.22-7.66,7.36-8.76,9.78-4.56,10.06-.42,20.49.66,23.01-23.97-.03-43.4-.1-57.04-.17-13.66-.06-25.37-.13-43.31-.17-13.44-.02-24.49-.01-31.91,0-.68,1.88-1.48,4.8-1.49,8.43-.01,4.17,1.03,7.46,1.82,9.42,3.65-.65,29.01-5,47.71,1.56,7.51,2.63,13.97,6.98,17.34,10.38,2.31,2.32,4.38,4.98,5.85,7.92.58,1.15,1.1,2.35,1.45,3.59.12.43.21.87.31,1.3-.11-.49-.1.29-.05.51-.06.46-.12.97-.13,1.07-.24,1.53-.63,3.03-1.09,4.51-.99,3.19-2.26,6.31-3.79,9.29-3.09,6.04-7.04,11.67-11.49,16.78-8.01,9.22-17.8,16.3-29.11,20.91-21.59,8.82-47.04,9.45-69.1,1.93-17.69-6.03-35.77-19.61-39.29-39.17-.87-4.82,1.91-11.18,4.91-15.7,3.2-4.81,7.46-8.85,12.11-12.24,5.53-4.02,12.12-7.49,18.78-9.24,3.16-.83,1.02-15.45-.37-15.08-18.92,4.97-35.33,18.57-38.43,38.64-2.34,15.11.45,31.09,8.72,44.02,5.49,8.59,13.47,15.09,22.43,19.82,22.8,12.03,51.72,13.08,75.9,4.78,26.06-8.95,49.08-32.55,52.93-60.52.73-5.3,2.6-16.15-2.71-27.82-2.79-6.12-6.57-10.38-9.25-12.94,24.61.11,49.22.21,73.82.32,4.1,4.04,9.58,6.56,15.35,7.58,16.49,2.93,33.92-5.57,43.43-19,11.03-15.58,11.6-38.61,5.16-56.1ZM279.35,129.48c-.57-1.37-.14-.89,0,0h0ZM279.02,131.21c.16-.2.26-.54.35-.9-.04.32-.14.63-.35.9ZM286,134.46c-.91.45-1.84.86-2.77,1.24-.73-.77-1.4-1.6-2-2.5-.73-1.08-1.23-2.2-1.73-3.39.07-.31.14-.6.24-.82.53-1.19,1.29-2.29,2.16-3.26,4.03-4.54,12.26-5.54,17.55-2.35-3.38,4.78-8.43,8.59-13.44,11.07Z"/>
    <path class="st0" d="M302.09,170.78c-9.46,7.58-18.73,15.53-28.54,22.65-.99.72-1.26,4.39-1.35,5.23-.31,2.83-.31,5.87-.03,8.71.13,1.35.8,9.57,3.23,7.81,9.81-7.12,19.08-15.07,28.54-22.65.99-.8,1.25-4.3,1.35-5.23.31-2.83.31-5.87.03-8.71-.12-1.26-.9-9.68-3.23-7.81Z"/>
    <path class="st0" d="M121.12,128.32c9.81-7.12,19.08-15.07,28.54-22.65.99-.8,1.25-4.3,1.35-5.23.31-2.83.31-5.87.04-8.71-.12-1.26-.9-9.68-3.23-7.81-9.46,7.58-18.73,15.53-28.54,22.65-.99.72-1.26,4.39-1.35,5.23-.31,2.83-.31,5.87-.03,8.71.13,1.35.8,9.57,3.23,7.81Z"/>
    <path class="st0" d="M123.91,279.2c-1.69-1.17-3.24-2.37-4.66-3.6-1.41-1.23-2.56-2.33-3.43-3.31-.49.33-1.18,1.28-2.05,2.86-.87,1.58-1.72,3.3-2.53,5.15-.82,1.85-1.54,3.57-2.17,5.15-.63,1.58-.94,2.54-.94,2.86.22.65.74,1.43,1.55,2.33.82.9,1.82,1.82,2.99,2.78,1.18.95,2.44,1.89,3.81,2.82,1.36.93,2.71,1.76,4.04,2.5,1.34.74,2.57,1.34,3.68,1.8,1.12.46,2.03.7,2.74.7.22,0,.65-.57,1.31-1.72.65-1.14,1.36-2.56,2.12-4.25.77-1.69,1.49-3.47,2.17-5.36.68-1.88,1.16-3.56,1.43-5.03-1.52-.55-3.16-1.34-4.91-2.37-1.74-1.03-3.46-2.14-5.15-3.31Z"/>
    <path class="st0" d="M142.48,267.22c-.77.82-1.58,2-2.45,3.56-.88,1.56-1.68,3.15-2.41,4.78-.74,1.64-1.36,3.12-1.88,4.46-.52,1.33-.78,2.19-.78,2.58.38,1.03,1.04,2.07,1.96,3.11.93,1.03,1.99,2.03,3.19,2.99,1.2.95,2.47,1.85,3.81,2.7,1.34.85,2.6,1.59,3.8,2.25,1.2.65,2.26,1.16,3.19,1.51.93.35,1.61.53,2.05.53.17,0,.45-.28.86-.82.4-.55.94-1.43,1.59-2.66.65-1.22,1.43-2.85,2.33-4.86.9-2.02,1.92-4.53,3.06-7.52-3.38-1.26-6.72-2.97-10.02-5.15-3.3-2.18-6.07-4.66-8.3-7.44Z"/>
  </g>
  <g>
    <g>
      <path class="st1" d="M460.82,70.84v85.43h-6.22v-40.93h-53.49v40.93h-6.22v-85.43h6.22v39.85h53.49v-39.85h6.22Z"/>
      <path class="st1" d="M491.25,75.49c0,.73-.15,1.4-.45,2.02-.3.62-.69,1.18-1.18,1.66-.48.48-1.05.87-1.69,1.15-.65.28-1.33.42-2.05.42s-1.41-.14-2.05-.42c-.64-.28-1.21-.66-1.69-1.15-.48-.48-.87-1.04-1.15-1.66-.28-.62-.42-1.3-.42-2.02s.14-1.42.42-2.08.66-1.24,1.15-1.72c.48-.48,1.05-.87,1.69-1.15s1.33-.42,2.05-.42,1.41.14,2.05.42c.64.28,1.2.66,1.69,1.15.48.48.88,1.06,1.18,1.72.3.66.45,1.36.45,2.08ZM488.77,96.19v60.07h-5.74v-60.07h5.74Z"/>
      <path class="st1" d="M557.78,96.19l-34.53,79.39c-.24.56-.55,1.03-.94,1.39-.38.36-.94.54-1.66.54h-4.1l10.56-23.49-25.42-57.84h4.77c.6,0,1.09.15,1.45.45.36.3.6.63.73,1l20.22,46.73c.24.6.45,1.22.63,1.84.18.62.35,1.26.51,1.9.2-.64.41-1.28.63-1.9.22-.62.45-1.24.7-1.84l19.98-46.73c.2-.44.48-.8.85-1.06.36-.26.76-.39,1.21-.39h4.41Z"/>
      <path class="st1" d="M567.07,104.71c3.14-3.14,6.44-5.51,9.9-7.12,3.46-1.61,7.39-2.42,11.77-2.42,3.22,0,6.04.51,8.45,1.54,2.42,1.03,4.42,2.5,6.01,4.41,1.59,1.91,2.78,4.23,3.59,6.94.8,2.72,1.2,5.75,1.2,9.08v39.12h-2.29c-1.21,0-1.95-.56-2.23-1.69l-.85-7.73c-1.65,1.61-3.29,3.06-4.92,4.35-1.63,1.29-3.33,2.38-5.1,3.26s-3.68,1.57-5.74,2.05c-2.05.48-4.31.73-6.76.73-2.05,0-4.05-.3-5.98-.91-1.93-.6-3.65-1.53-5.16-2.78-1.51-1.25-2.72-2.85-3.62-4.8-.91-1.95-1.36-4.3-1.36-7.03,0-2.53.72-4.89,2.17-7.06,1.45-2.17,3.72-4.06,6.82-5.67,3.1-1.61,7.07-2.9,11.92-3.86,4.85-.97,10.68-1.53,17.48-1.69v-6.28c0-5.55-1.2-9.83-3.59-12.83-2.4-3-5.95-4.5-10.65-4.5-2.9,0-5.36.4-7.4,1.21-2.03.81-3.75,1.69-5.16,2.66-1.41.97-2.55,1.85-3.44,2.66-.88.81-1.63,1.21-2.23,1.21-.44,0-.81-.1-1.09-.3-.28-.2-.52-.46-.73-.79l-1.03-1.75ZM602.39,127.23c-5.72.2-10.63.65-14.76,1.36-4.13.7-7.53,1.66-10.2,2.87-2.68,1.21-4.66,2.65-5.95,4.32-1.29,1.67-1.93,3.57-1.93,5.71,0,2.01.33,3.75,1,5.22.66,1.47,1.55,2.68,2.66,3.62,1.1.95,2.38,1.64,3.83,2.08,1.45.44,2.96.66,4.53.66,2.34,0,4.48-.25,6.43-.75,1.95-.5,3.76-1.21,5.43-2.11,1.67-.91,3.23-1.98,4.68-3.23s2.88-2.6,4.29-4.04v-15.7Z"/>
    </g>
    <g>
      <path class="st1" d="M460.82,193.94v85.43h-6.22v-40.93h-53.49v40.93h-6.22v-85.43h6.22v39.85h53.49v-39.85h6.22Z"/>
      <path class="st1" d="M483.46,246.95v1.15c0,4.51.52,8.47,1.57,11.89,1.05,3.42,2.54,6.29,4.47,8.6,1.93,2.32,4.27,4.06,7,5.22,2.74,1.17,5.8,1.75,9.18,1.75,3.02,0,5.63-.33,7.85-1,2.21-.66,4.08-1.41,5.58-2.24,1.51-.82,2.71-1.57,3.59-2.23.89-.66,1.53-1,1.93-1,.52,0,.93.2,1.21.6l1.57,1.93c-.97,1.21-2.25,2.33-3.84,3.38-1.59,1.05-3.36,1.94-5.31,2.69-1.95.75-4.04,1.34-6.28,1.78-2.24.44-4.48.66-6.73.66-4.1,0-7.85-.72-11.23-2.15-3.38-1.43-6.28-3.51-8.7-6.25-2.41-2.74-4.28-6.09-5.58-10.05-1.31-3.96-1.96-8.5-1.96-13.61,0-4.31.61-8.28,1.84-11.92,1.23-3.64,3-6.78,5.31-9.42,2.31-2.64,5.15-4.7,8.51-6.19,3.36-1.49,7.17-2.23,11.44-2.23,3.38,0,6.52.58,9.42,1.75,2.9,1.17,5.41,2.87,7.55,5.1,2.13,2.24,3.81,4.98,5.04,8.24,1.23,3.26,1.84,7,1.84,11.23,0,.89-.12,1.49-.36,1.81s-.64.48-1.21.48h-43.71ZM523.54,243.27c0-3.22-.45-6.11-1.36-8.66-.91-2.55-2.18-4.72-3.83-6.49-1.65-1.77-3.61-3.13-5.89-4.07-2.28-.95-4.78-1.42-7.52-1.42-3.1,0-5.88.48-8.33,1.45-2.45.97-4.58,2.36-6.37,4.17-1.79,1.81-3.23,3.98-4.32,6.52-1.09,2.54-1.81,5.37-2.18,8.51h39.78Z"/>
      <path class="st1" d="M542.68,227.81c3.14-3.14,6.44-5.51,9.9-7.12,3.46-1.61,7.39-2.42,11.77-2.42,3.22,0,6.04.51,8.45,1.54s4.42,2.5,6.01,4.41c1.59,1.91,2.78,4.23,3.59,6.94.8,2.72,1.2,5.75,1.2,9.08v39.12h-2.29c-1.21,0-1.95-.56-2.23-1.69l-.85-7.73c-1.65,1.61-3.29,3.06-4.92,4.35-1.63,1.29-3.33,2.38-5.1,3.26-1.77.89-3.68,1.57-5.74,2.05s-4.31.73-6.76.73c-2.05,0-4.05-.3-5.98-.91-1.93-.6-3.65-1.53-5.16-2.78-1.51-1.25-2.72-2.85-3.62-4.8-.91-1.95-1.36-4.3-1.36-7.03,0-2.53.72-4.89,2.17-7.06,1.45-2.17,3.72-4.06,6.82-5.67,3.1-1.61,7.07-2.9,11.92-3.86,4.85-.97,10.68-1.53,17.48-1.69v-6.28c0-5.55-1.2-9.83-3.59-12.83-2.4-3-5.95-4.5-10.65-4.5-2.9,0-5.36.4-7.4,1.21-2.03.81-3.75,1.69-5.16,2.66-1.41.97-2.55,1.85-3.44,2.66-.88.81-1.63,1.21-2.23,1.21-.44,0-.81-.1-1.09-.3-.28-.2-.52-.46-.73-.79l-1.03-1.75ZM578,250.33c-5.72.2-10.63.65-14.76,1.36-4.13.7-7.53,1.66-10.2,2.87-2.68,1.21-4.66,2.65-5.95,4.32-1.29,1.67-1.93,3.57-1.93,5.71,0,2.01.33,3.75,1,5.22.66,1.47,1.55,2.68,2.66,3.62,1.1.95,2.38,1.64,3.83,2.08,1.45.44,2.96.66,4.53.66,2.34,0,4.48-.25,6.43-.75,1.95-.5,3.76-1.21,5.43-2.11,1.67-.91,3.23-1.98,4.68-3.23,1.45-1.25,2.88-2.6,4.29-4.04v-15.7Z"/>
      <path class="st1" d="M609.15,191.53v87.84h-5.8v-87.84h5.8Z"/>
      <path class="st1" d="M645.92,280.34c-4.07,0-7.24-1.13-9.51-3.38-2.28-2.25-3.41-5.74-3.41-10.44v-41.05h-8.63c-.44,0-.81-.12-1.09-.36-.28-.24-.42-.58-.42-1.03v-2.23l10.27-.73,1.45-21.49c.08-.36.24-.68.48-.97.24-.28.58-.42,1.02-.42h2.72v22.94h18.96v4.29h-18.96v40.75c0,1.65.21,3.07.63,4.25.42,1.19,1.01,2.17,1.75,2.93.74.77,1.62,1.33,2.62,1.69,1.01.36,2.09.54,3.26.54,1.45,0,2.69-.21,3.74-.63,1.05-.42,1.95-.89,2.72-1.39.77-.5,1.39-.97,1.87-1.39.48-.42.87-.63,1.15-.63.32,0,.64.2.97.6l1.57,2.54c-1.53,1.69-3.47,3.05-5.83,4.07-2.35,1.03-4.8,1.54-7.33,1.54Z"/>
      <path class="st1" d="M676.65,229.44c2.77-3.38,5.95-6.08,9.51-8.09,3.56-2.01,7.56-3.02,11.98-3.02,3.3,0,6.21.52,8.73,1.57,2.51,1.05,4.6,2.56,6.25,4.53,1.65,1.97,2.9,4.35,3.74,7.12.85,2.78,1.27,5.92,1.27,9.42v38.4h-5.8v-38.4c0-5.63-1.29-10.05-3.86-13.25-2.58-3.2-6.5-4.8-11.77-4.8-3.91,0-7.56,1-10.96,2.99-3.4,1.99-6.43,4.76-9.09,8.3v45.16h-5.8v-87.84h5.8v37.91Z"/>
      <path class="st1" d="M777.65,227.33c-.2.2-.39.37-.57.51-.18.14-.43.21-.76.21-.4,0-.95-.27-1.63-.82-.68-.54-1.61-1.14-2.78-1.78-1.17-.64-2.62-1.24-4.38-1.78-1.75-.54-3.87-.82-6.37-.82-3.46,0-6.53.61-9.21,1.84-2.68,1.23-4.94,2.99-6.79,5.28-1.85,2.3-3.25,5.07-4.19,8.33-.95,3.26-1.42,6.92-1.42,10.99s.49,7.97,1.48,11.23c.98,3.26,2.38,6.01,4.19,8.24,1.81,2.23,4,3.93,6.58,5.1,2.58,1.17,5.43,1.75,8.57,1.75,2.9,0,5.32-.34,7.28-1.03,1.95-.68,3.56-1.43,4.83-2.24,1.27-.8,2.26-1.55,2.99-2.23.73-.68,1.33-1.03,1.81-1.03s.88.2,1.21.6l1.51,1.93c-.93,1.21-2.09,2.33-3.5,3.38-1.41,1.05-3,1.95-4.77,2.72-1.77.77-3.69,1.36-5.77,1.78-2.07.42-4.23.63-6.49.63-3.83,0-7.32-.69-10.47-2.08-3.16-1.39-5.88-3.4-8.15-6.04-2.28-2.64-4.05-5.87-5.31-9.69-1.27-3.82-1.9-8.17-1.9-13.04,0-4.59.6-8.77,1.81-12.56,1.21-3.78,2.98-7.04,5.31-9.78,2.34-2.74,5.18-4.86,8.54-6.37,3.36-1.51,7.22-2.26,11.56-2.26,3.9,0,7.37.62,10.39,1.87,3.02,1.25,5.65,2.94,7.91,5.07l-1.51,2.05Z"/>
      <path class="st1" d="M792.5,227.81c3.14-3.14,6.44-5.51,9.9-7.12,3.46-1.61,7.39-2.42,11.77-2.42,3.22,0,6.04.51,8.45,1.54,2.41,1.03,4.42,2.5,6.01,4.41,1.59,1.91,2.79,4.23,3.59,6.94s1.21,5.75,1.21,9.08v39.12h-2.3c-1.21,0-1.95-.56-2.23-1.69l-.85-7.73c-1.65,1.61-3.29,3.06-4.92,4.35-1.63,1.29-3.33,2.38-5.1,3.26-1.77.89-3.68,1.57-5.74,2.05-2.05.48-4.31.73-6.76.73-2.05,0-4.04-.3-5.98-.91-1.93-.6-3.65-1.53-5.16-2.78-1.51-1.25-2.71-2.85-3.62-4.8-.9-1.95-1.36-4.3-1.36-7.03,0-2.53.73-4.89,2.17-7.06,1.45-2.17,3.72-4.06,6.82-5.67,3.1-1.61,7.07-2.9,11.92-3.86,4.85-.97,10.68-1.53,17.48-1.69v-6.28c0-5.55-1.2-9.83-3.59-12.83-2.4-3-5.95-4.5-10.66-4.5-2.9,0-5.36.4-7.4,1.21-2.03.81-3.75,1.69-5.16,2.66-1.41.97-2.56,1.85-3.44,2.66-.89.81-1.63,1.21-2.24,1.21-.44,0-.81-.1-1.09-.3s-.52-.46-.72-.79l-1.03-1.75ZM827.82,250.33c-5.72.2-10.64.65-14.76,1.36-4.12.7-7.53,1.66-10.2,2.87-2.68,1.21-4.66,2.65-5.95,4.32-1.29,1.67-1.93,3.57-1.93,5.71,0,2.01.33,3.75,1,5.22.66,1.47,1.55,2.68,2.65,3.62,1.11.95,2.39,1.64,3.84,2.08,1.45.44,2.96.66,4.53.66,2.33,0,4.48-.25,6.43-.75,1.95-.5,3.76-1.21,5.43-2.11s3.23-1.98,4.68-3.23c1.45-1.25,2.88-2.6,4.29-4.04v-15.7Z"/>
      <path class="st1" d="M858.13,233.79c.92-2.45,1.98-4.64,3.17-6.55,1.19-1.91,2.56-3.53,4.11-4.86,1.55-1.33,3.28-2.34,5.19-3.05,1.91-.7,4.03-1.06,6.37-1.06,1.25,0,2.47.11,3.68.33,1.21.22,2.27.61,3.2,1.18l-.48,3.98c-.2.64-.58.97-1.14.97-.48,0-1.22-.14-2.21-.42-.99-.28-2.29-.42-3.89-.42-2.34,0-4.4.35-6.19,1.06-1.79.7-3.4,1.76-4.83,3.17-1.43,1.41-2.68,3.15-3.74,5.22-1.07,2.07-2.04,4.46-2.93,7.16v38.88h-5.8v-60.07h3.08c.68,0,1.16.14,1.45.42s.46.76.54,1.45l.42,12.62Z"/>
      <path class="st1" d="M893.99,246.95v1.15c0,4.51.52,8.47,1.57,11.89,1.04,3.42,2.53,6.29,4.47,8.6,1.93,2.32,4.26,4.06,7,5.22,2.73,1.17,5.8,1.75,9.17,1.75,3.02,0,5.63-.33,7.85-1,2.21-.66,4.07-1.41,5.58-2.24,1.51-.82,2.7-1.57,3.59-2.23.88-.66,1.53-1,1.93-1,.52,0,.92.2,1.2.6l1.57,1.93c-.97,1.21-2.24,2.33-3.83,3.38-1.59,1.05-3.36,1.94-5.31,2.69s-4.04,1.34-6.28,1.78c-2.23.44-4.48.66-6.73.66-4.11,0-7.85-.72-11.23-2.15-3.38-1.43-6.28-3.51-8.69-6.25-2.42-2.74-4.28-6.09-5.58-10.05-1.31-3.96-1.96-8.5-1.96-13.61,0-4.31.61-8.28,1.84-11.92,1.23-3.64,3-6.78,5.31-9.42s5.15-4.7,8.51-6.19c3.36-1.49,7.18-2.23,11.44-2.23,3.38,0,6.52.58,9.42,1.75,2.9,1.17,5.41,2.87,7.55,5.1,2.13,2.24,3.81,4.98,5.04,8.24,1.23,3.26,1.84,7,1.84,11.23,0,.89-.12,1.49-.36,1.81-.24.32-.65.48-1.21.48h-43.71ZM934.07,243.27c0-3.22-.45-6.11-1.36-8.66-.9-2.55-2.18-4.72-3.83-6.49-1.65-1.77-3.61-3.13-5.89-4.07-2.27-.95-4.78-1.42-7.52-1.42-3.1,0-5.88.48-8.33,1.45-2.46.97-4.58,2.36-6.37,4.17-1.79,1.81-3.23,3.98-4.32,6.52-1.09,2.54-1.81,5.37-2.17,8.51h39.78Z"/>
    </g>
  </g>
</svg>