<?xml version="1.0" standalone="no"?>
<!DOCTYPE svg PUBLIC "-//W3C//DTD SVG 20010904//EN"
 "http://www.w3.org/TR/2001/REC-SVG-20010904/DTD/svg10.dtd">
<svg version="1.0" xmlns="http://www.w3.org/2000/svg"
 width="1000.000000pt" height="1001.000000pt" viewBox="0 0 1000.000000 1001.000000"
 preserveAspectRatio="xMidYMid meet">

<g transform="translate(0.000000,1001.000000) scale(0.100000,-0.100000)"
fill="#000000" stroke="none">
<path d="M2730 6333 c-62 -10 -171 -44 -234 -73 -194 -87 -396 -281 -396 -379
0 -42 9 -81 19 -81 3 1 26 26 51 57 104 130 315 260 495 305 128 31 308 31
420 0 231 -66 388 -223 389 -388 0 -127 -95 -259 -240 -330 -68 -34 -86 -39
-170 -42 -94 -4 -111 2 -78 29 8 7 27 36 42 63 33 65 38 176 9 219 -57 88
-183 88 -241 0 -46 -70 -54 -168 -21 -256 7 -16 -29 -17 -658 -17 l-665 0 -6
-47 c-3 -27 -2 -64 2 -83 7 -29 12 -35 33 -33 226 20 357 12 464 -28 130 -49
241 -159 239 -238 -2 -47 -42 -145 -91 -218 -127 -191 -315 -315 -548 -358
-134 -26 -339 -17 -460 19 -214 64 -371 194 -426 353 -24 70 -24 80 2 148 37
100 155 207 286 260 31 13 60 31 66 40 5 9 6 42 2 72 -7 55 -7 55 -37 49 -59
-12 -163 -72 -225 -130 -99 -92 -143 -202 -143 -355 1 -237 121 -430 332 -534
147 -73 223 -90 413 -90 141 -1 171 2 257 25 170 46 284 114 405 241 84 89
133 167 169 272 25 70 28 95 28 205 1 114 -1 130 -25 180 -14 31 -40 72 -58
92 -17 20 -31 39 -31 43 0 5 164 5 364 2 l363 -6 50 -31 c173 -108 449 -19
566 181 61 104 84 294 53 441 -22 103 -61 175 -135 248 -125 124 -282 181
-491 179 -63 -1 -126 -4 -140 -6z m255 -724 c21 -20 -131 -139 -157 -123 -4 3
-15 18 -22 33 -13 25 -13 30 7 55 37 46 137 66 172 35z"/>
<path d="M4832 6124 c-33 -23 -27 -75 10 -88 55 -19 93 55 46 88 -28 20 -28
20 -56 0z"/>
<path d="M3950 5705 l0 -425 30 0 30 0 0 200 0 200 270 0 270 0 0 -200 0 -200
30 0 30 0 0 425 0 425 -30 0 -30 0 0 -200 0 -200 -270 0 -270 0 0 200 0 200
-30 0 -30 0 0 -425z"/>
<path d="M1344 5890 c-76 -61 -145 -121 -151 -133 -24 -42 -13 -197 13 -197 8
0 76 50 151 111 107 85 140 118 147 142 10 38 2 165 -11 178 -6 6 -61 -32
-149 -101z"/>
<path d="M5830 5881 c-46 -10 -98 -35 -134 -67 -25 -22 -27 -27 -15 -39 12
-12 23 -8 72 22 102 64 207 53 249 -27 12 -24 18 -56 18 -102 l0 -68 -52 0
c-72 0 -184 -25 -238 -53 -82 -42 -111 -120 -72 -197 28 -56 73 -80 151 -80
72 0 125 19 177 63 18 15 34 27 37 27 3 0 7 -17 9 -37 2 -31 7 -39 26 -41 l22
-3 0 218 c0 128 -5 234 -11 258 -20 72 -110 138 -184 134 -11 -1 -36 -4 -55
-8z m190 -395 c0 -83 -1 -85 -32 -112 -69 -57 -175 -82 -231 -53 -54 28 -76
108 -41 157 30 43 124 75 249 85 22 2 43 4 48 5 4 1 7 -36 7 -82z"/>
<path d="M4830 5580 l0 -300 30 0 30 0 0 300 0 300 -30 0 -30 0 0 -300z"/>
<path d="M5020 5875 c0 -3 56 -134 126 -291 l125 -287 -52 -114 c-28 -63 -49
-117 -46 -120 4 -3 17 -3 30 1 20 5 48 61 195 400 95 217 172 399 172 405 0
20 -39 11 -54 -11 -8 -13 -60 -129 -115 -257 l-100 -235 -19 45 c-11 24 -56
130 -101 234 -97 224 -103 235 -136 235 -14 0 -25 -2 -25 -5z"/>
<path d="M2885 5019 c-77 -62 -145 -123 -152 -138 -21 -45 -11 -180 14 -188
14 -5 285 211 295 235 15 39 7 202 -11 202 -4 0 -70 -50 -146 -111z"/>
<path d="M6032 4483 l3 -438 28 -3 27 -3 0 440 0 441 -30 0 -30 0 2 -437z"/>
<path d="M6710 4479 l0 -440 28 3 27 3 3 230 c2 221 3 230 25 253 64 69 181
100 246 65 73 -38 75 -47 81 -311 l5 -237 28 -3 27 -3 0 224 c0 176 -3 234
-15 268 -30 84 -84 119 -185 119 -74 0 -123 -19 -172 -68 l-38 -36 0 187 0
187 -30 0 -30 0 0 -441z"/>
<path d="M3950 4470 l0 -430 30 0 30 0 0 205 0 205 270 0 270 0 0 -205 0 -205
30 0 30 0 0 430 0 430 -30 0 -30 0 0 -200 0 -200 -270 0 -270 0 0 200 0 200
-30 0 -30 0 0 -430z"/>
<path d="M6352 4843 c-5 -10 -12 -60 -14 -111 -3 -51 -8 -95 -11 -99 -3 -3
-27 -8 -52 -11 -35 -4 -45 -8 -43 -21 2 -11 16 -17 51 -19 l47 -3 0 -227 c0
-207 2 -230 20 -259 10 -17 29 -37 41 -44 37 -19 113 -14 158 12 44 24 45 26
31 49 -7 12 -15 11 -50 -9 -31 -17 -50 -21 -75 -17 -62 12 -65 25 -65 273 l0
223 95 0 c95 0 95 0 95 25 0 25 0 25 -95 25 l-95 0 0 115 c0 94 -3 115 -15
115 -8 0 -18 -8 -23 -17z"/>
<path d="M5589 4650 c-51 -9 -78 -21 -126 -58 -36 -26 -37 -30 -24 -51 7 -11
21 -6 72 25 55 34 70 39 125 39 56 0 66 -3 93 -29 36 -34 51 -80 51 -152 l0
-51 -82 -6 c-119 -8 -214 -40 -260 -87 -35 -34 -38 -43 -38 -91 0 -101 55
-152 165 -151 70 1 119 18 175 62 41 32 50 27 50 -25 0 -23 24 -40 41 -29 13
7 11 392 -2 453 -25 118 -112 172 -240 151z m191 -399 l0 -79 -39 -31 c-55
-44 -102 -61 -166 -61 -46 0 -60 5 -85 28 -42 37 -51 96 -20 135 41 52 137 84
253 86 l57 1 0 -79z"/>
<path d="M8080 4649 c-48 -9 -127 -54 -144 -81 -8 -13 -7 -21 1 -29 10 -10 21
-6 50 14 61 42 113 60 160 54 85 -9 123 -58 131 -168 l4 -66 -83 -6 c-212 -15
-332 -102 -299 -216 22 -78 69 -112 155 -113 67 -1 119 16 177 59 l47 34 7
-38 c6 -35 18 -52 37 -53 4 0 7 107 7 238 0 260 -7 294 -64 340 -23 17 -111
45 -134 41 -4 -1 -27 -5 -52 -10z m200 -397 l0 -78 -48 -36 c-61 -47 -91 -58
-159 -58 -49 0 -59 4 -89 34 -37 37 -44 74 -22 121 24 52 133 93 256 94 l62 1
0 -78z"/>
<path d="M8727 4649 c-54 -12 -84 -35 -115 -88 l-27 -46 -3 55 c-3 56 -15 80
-38 80 -12 0 -14 -53 -14 -305 l0 -305 25 0 25 0 0 194 c0 167 3 200 19 238
40 95 102 136 187 124 37 -5 44 -3 49 15 4 12 3 24 -2 29 -14 13 -67 18 -106
9z"/>
<path d="M4921 4624 c-99 -50 -147 -153 -139 -298 8 -140 65 -230 171 -271 68
-26 184 -17 254 18 59 30 69 42 53 61 -9 12 -21 9 -72 -17 -51 -27 -72 -32
-127 -32 -137 1 -203 70 -226 237 l-6 48 228 2 228 3 -3 52 c-5 93 -53 171
-127 204 -63 29 -168 26 -234 -7z m215 -35 c50 -24 81 -68 93 -133 l8 -46
-200 0 -199 0 6 33 c26 132 171 205 292 146z"/>
<path d="M7481 4624 c-94 -47 -141 -142 -141 -285 0 -142 67 -257 167 -287 90
-27 211 -7 266 44 23 21 26 29 16 40 -10 12 -15 12 -38 -3 -110 -72 -210 -69
-286 11 -49 51 -65 99 -65 201 0 97 14 144 57 194 63 75 167 90 267 41 40 -20
49 -22 56 -10 12 19 -2 34 -54 59 -65 32 -176 29 -245 -5z"/>
<path d="M9051 4636 c-47 -17 -108 -71 -131 -115 -76 -150 -30 -369 93 -445
89 -55 260 -45 337 20 23 20 28 29 19 40 -9 11 -22 7 -71 -19 -52 -27 -71 -31
-132 -31 -134 0 -207 74 -223 224 l-6 60 227 0 226 0 0 44 c0 91 -44 169 -120
210 -39 21 -60 26 -116 25 -38 0 -84 -6 -103 -13z m213 -59 c42 -33 63 -69 72
-126 l7 -41 -201 0 -200 0 10 38 c31 112 99 164 209 159 54 -2 73 -7 103 -30z"/>
<path d="M1406 4139 c-8 -12 -25 -47 -37 -77 l-23 -55 47 -42 c50 -46 125 -88
140 -78 10 6 67 126 67 142 0 5 -24 23 -54 40 -30 17 -70 44 -89 61 l-35 31
-16 -22z"/>
<path d="M1135 4081 c-8 -16 -23 -52 -34 -79 l-20 -50 43 -40 c45 -42 114 -82
139 -82 13 0 56 87 70 140 2 9 -17 27 -52 48 -31 18 -70 47 -86 63 -17 16 -34
29 -38 29 -3 0 -13 -13 -22 -29z"/>
</g>
</svg>
